{"title":"WWE.Main.Event.2013.04.17.720p.HDTV.x264-WD_wrestlingforum.info.","uid":8385352,"size":1209572753,"categoryP":"video","categoryS":"other","magnet":"?xt=urn:btih:a4960c05d8ac54466b0a60275d103ae4079ed573&amp;dn=WWE.Main.Event.2013.04.17.720p.HDTV.x264-WD_wrestlingforum.info.&amp;tr=udp%3A%2F%2Ftracker.openbittorrent.com%3A80&amp;tr=udp%3A%2F%2Fopen.demonii.com%3A1337&amp;tr=udp%3A%2F%2Ftracker.coppersurfer.tk%3A6969&amp;tr=udp%3A%2F%2Fexodus.desync.com%3A6969","seeders":0,"leechers":0,"uploader":null,"files":1,"time":1366277665,"description":"WWE.Main.Event.2013.04.17.720p.HDTV.x264-WD\n\n Format : MPEG-4\n Website : Wrestling Desires    &lt;a href=&quot; http://wrestlingforum.info/&quot; rel=&quot;nofollow&quot; target=&quot;_NEW&quot;&gt; http://wrestlingforum.info/&lt;/a&gt;   \n Format profile : Base Media\n Codec ID : isom\n File size : 1.13 GiB\n Duration : 43mn 30s\n Overall bit rate mode : Variable\n Overall bit rate : 3 707 Kbps\n Encoded date : UTC 2013-04-18 02:53:04\n Tagged date : UTC 2013-04-18 02:53:04\n\n Video\n ID : 1\n Format : AVC\n Format/Info : Advanced Video Codec\n Format profile : &lt;a class=&quot;__cf_email__&quot; href=&quot;/cdn-cgi/l/email-protection&quot; data-cfemail=&quot;c088a9a7a8808cf3eef1&quot;&gt;[email&amp;#160;protected]&lt;/a&gt;&lt;script cf-hash='f9e31' type=&quot;text/javascript&quot;&gt;\n/* &lt;![CDATA[ */!function(){try{var t=&quot;currentScript&quot;in document?document.currentScript:function(){for(var t=document.getElementsByTagName(&quot;script&quot;),e=t.length;e--;)if(t[e].getAttribute(&quot;cf-hash&quot;))return t[e]}();if(t&amp;&amp;t.previousSibling){var e,r,n,i,c=t.previousSibling,a=c.getAttribute(&quot;data-cfemail&quot;);if(a){for(e=&quot;&quot;,r=parseInt(a.substr(0,2),16),n=2;a.length-n;n+=2)i=parseInt(a.substr(n,2),16)^r,e+=String.fromCharCode(i);e=document.createTextNode(e),c.parentNode.replaceChild(e,c)}}}catch(u){}}();/* ]]&gt; */&lt;/script&gt;\n Format settings, CABAC : Yes\n Format settings, ReFrames : 3 frames\n Codec ID : avc1\n Codec ID/Info : Advanced Video Coding\n Duration : 43mn 30s\n Bit rate mode : Variable\n Bit rate : 3 575 Kbps\n Maximum bit rate : 4 700 Kbps\n Width : 1 280 pixels\n Height : 720 pixels\n Display aspect ratio : 16:9\n Frame rate mode : Constant\n Frame rate : 29.970 fps\n Color space : YUV\n Chroma subsampling : 4:2:0\n Bit depth : 8 bits\n Scan type : Progressive\n Bits/(Pixel*Frame) : 0.129\n Stream size : 1.09 GiB (96%)\n Title : me720\n Writing library : x264 core 130 r2273 b3065e6\n Encoding settings : cabac=1 / ref=3 / deblock=1:0:0 / analyse=0x3:0x113 / me=hex / subme=7 / psy=1 / psy_rd=1.00:0.00 / mixed_ref=1 / me_range=16 / chroma_me=1 / trellis=1 / 8x8dct=1 / cqm=0 / deadzone=21,11 / fast_pskip=1 / chroma_qp_offset=-2 / threads=9 / lookahead_threads=1 / sliced_threads=0 / nr=0 / decimate=1 / interlaced=0 / bluray_compat=0 / constrained_intra=0 / bframes=3 / b_pyramid=0 / b_adapt=1 / b_bias=0 / direct=1 / weightb=1 / open_gop=0 / weightp=2 / keyint=300 / keyint_min=30 / scenecut=40 / intra_refresh=0 / rc_lookahead=40 / rc=crf / mbtree=1 / crf=22.0 / qcomp=0.60 / qpmin=0 / qpmax=69 / qpstep=4 / vbv_maxrate=4700 / vbv_bufsize=4650 / crf_max=0.0 / nal_hrd=vbr / ip_ratio=1.40 / aq=1:1.00\n Encoded date : UTC 2013-04-18 02:53:04\n Tagged date : UTC 2013-04-18 02:53:27\n\n Audio\n ID : 2\n Format : AAC\n Format/Info : Advanced Audio Codec\n Format profile : LC\n Codec ID : 40\n Duration : 43mn 30s\n Bit rate mode : Variable\n Bit rate : 128 Kbps\n Maximum bit rate : 134 Kbps\n Channel(s) : 2 channels\n Channel positions : Front: L R\n Sampling rate : 48.0 KHz\n Compression mode : Lossy\n Stream size : 39.8 MiB (3%)\n Language : English\n Encoded date : UTC 2013-04-18 02:53:24\n Tagged date : UTC 2013-04-18 02:53:27","torrent":{"xt":"urn:btih:a4960c05d8ac54466b0a60275d103ae4079ed573","amp;dn":"WWE.Main.Event.2013.04.17.720p.HDTV.x264-WD_wrestlingforum.info.","amp;tr":["udp%3A%2F%2Ftracker.openbittorrent.com%3A80","udp%3A%2F%2Fopen.demonii.com%3A1337","udp%3A%2F%2Ftracker.coppersurfer.tk%3A6969","udp%3A%2F%2Fexodus.desync.com%3A6969"],"infoHash":"a4960c05d8ac54466b0a60275d103ae4079ed573","infoHashBuffer":{"type":"Buffer","data":[164,150,12,5,216,172,84,70,107,10,96,39,93,16,58,228,7,158,213,115]},"announce":[],"urlList":[]}}